<mxfile host="app.diagrams.net" modified="2021-02-04T08:23:35.851Z" agent="5.0 (Macintosh; Intel Mac OS X 10_15_6) AppleWebKit/537.36 (KHTML, like Gecko) Chrome/88.0.4324.146 Safari/537.36" etag="8YobgCb5ORzoj6ERhSNr" version="14.2.7" type="github">
  <diagram id="Yv42vdhtdSgge01MRzK3" name="Page-1">
    <mxGraphModel dx="946" dy="512" grid="1" gridSize="10" guides="1" tooltips="1" connect="1" arrows="1" fold="1" page="1" pageScale="1" pageWidth="1200" pageHeight="1920" math="0" shadow="0">
      <root>
        <mxCell id="0" />
        <mxCell id="1" parent="0" />
        <mxCell id="veUbdTU9lH5DfOVdRYez-23" style="edgeStyle=orthogonalEdgeStyle;rounded=0;orthogonalLoop=1;jettySize=auto;html=1;entryX=0;entryY=0.5;entryDx=0;entryDy=0;" edge="1" parent="1" source="veUbdTU9lH5DfOVdRYez-2" target="veUbdTU9lH5DfOVdRYez-22">
          <mxGeometry relative="1" as="geometry" />
        </mxCell>
        <mxCell id="veUbdTU9lH5DfOVdRYez-26" style="edgeStyle=orthogonalEdgeStyle;rounded=0;orthogonalLoop=1;jettySize=auto;html=1;exitX=0.5;exitY=1;exitDx=0;exitDy=0;entryX=0.5;entryY=0;entryDx=0;entryDy=0;" edge="1" parent="1" source="veUbdTU9lH5DfOVdRYez-2" target="veUbdTU9lH5DfOVdRYez-27">
          <mxGeometry relative="1" as="geometry">
            <mxPoint x="220" y="390" as="targetPoint" />
          </mxGeometry>
        </mxCell>
        <mxCell id="veUbdTU9lH5DfOVdRYez-2" value="上传数据集（pdf）" style="rounded=0;whiteSpace=wrap;html=1;" vertex="1" parent="1">
          <mxGeometry x="180" y="250" width="100" height="60" as="geometry" />
        </mxCell>
        <mxCell id="veUbdTU9lH5DfOVdRYez-3" value="&lt;pre style=&quot;font-family: &amp;#34;jetbrains mono&amp;#34; , monospace ; font-size: 11.3pt&quot;&gt;&lt;br&gt;&lt;/pre&gt;" style="strokeWidth=2;html=1;shape=mxgraph.flowchart.database;whiteSpace=wrap;" vertex="1" parent="1">
          <mxGeometry x="630" y="255" width="100" height="50" as="geometry" />
        </mxCell>
        <mxCell id="veUbdTU9lH5DfOVdRYez-8" style="edgeStyle=orthogonalEdgeStyle;rounded=0;orthogonalLoop=1;jettySize=auto;html=1;exitX=1;exitY=0.5;exitDx=0;exitDy=0;entryX=0;entryY=0.5;entryDx=0;entryDy=0;entryPerimeter=0;" edge="1" parent="1" source="veUbdTU9lH5DfOVdRYez-6" target="veUbdTU9lH5DfOVdRYez-3">
          <mxGeometry relative="1" as="geometry" />
        </mxCell>
        <mxCell id="veUbdTU9lH5DfOVdRYez-6" value="NAS" style="shape=internalStorage;whiteSpace=wrap;html=1;backgroundOutline=1;dx=20;dy=20;" vertex="1" parent="1">
          <mxGeometry x="490" y="240" width="80" height="80" as="geometry" />
        </mxCell>
        <mxCell id="veUbdTU9lH5DfOVdRYez-24" style="edgeStyle=orthogonalEdgeStyle;rounded=0;orthogonalLoop=1;jettySize=auto;html=1;exitX=1;exitY=0.5;exitDx=0;exitDy=0;entryX=0;entryY=0.5;entryDx=0;entryDy=0;" edge="1" parent="1" source="veUbdTU9lH5DfOVdRYez-22" target="veUbdTU9lH5DfOVdRYez-6">
          <mxGeometry relative="1" as="geometry" />
        </mxCell>
        <mxCell id="veUbdTU9lH5DfOVdRYez-22" value="pdf2table" style="whiteSpace=wrap;html=1;aspect=fixed;" vertex="1" parent="1">
          <mxGeometry x="340" y="240" width="80" height="80" as="geometry" />
        </mxCell>
        <mxCell id="veUbdTU9lH5DfOVdRYez-33" style="edgeStyle=orthogonalEdgeStyle;rounded=0;orthogonalLoop=1;jettySize=auto;html=1;" edge="1" parent="1" source="veUbdTU9lH5DfOVdRYez-27" target="veUbdTU9lH5DfOVdRYez-36">
          <mxGeometry relative="1" as="geometry">
            <mxPoint x="410" y="390" as="targetPoint" />
          </mxGeometry>
        </mxCell>
        <mxCell id="veUbdTU9lH5DfOVdRYez-27" value="标注" style="whiteSpace=wrap;html=1;" vertex="1" parent="1">
          <mxGeometry x="170" y="360" width="120" height="60" as="geometry" />
        </mxCell>
        <mxCell id="veUbdTU9lH5DfOVdRYez-30" style="edgeStyle=orthogonalEdgeStyle;rounded=0;orthogonalLoop=1;jettySize=auto;html=1;exitX=0.5;exitY=1;exitDx=0;exitDy=0;entryX=0.5;entryY=0;entryDx=0;entryDy=0;" edge="1" parent="1" source="veUbdTU9lH5DfOVdRYez-29" target="veUbdTU9lH5DfOVdRYez-31">
          <mxGeometry relative="1" as="geometry">
            <mxPoint x="230" y="110" as="targetPoint" />
          </mxGeometry>
        </mxCell>
        <mxCell id="veUbdTU9lH5DfOVdRYez-38" style="edgeStyle=orthogonalEdgeStyle;rounded=0;orthogonalLoop=1;jettySize=auto;html=1;exitX=1;exitY=0.5;exitDx=0;exitDy=0;entryX=0;entryY=0.5;entryDx=0;entryDy=0;entryPerimeter=0;" edge="1" parent="1" source="veUbdTU9lH5DfOVdRYez-29" target="veUbdTU9lH5DfOVdRYez-37">
          <mxGeometry relative="1" as="geometry">
            <mxPoint x="450" y="60" as="targetPoint" />
          </mxGeometry>
        </mxCell>
        <mxCell id="veUbdTU9lH5DfOVdRYez-29" value="定义数据字典" style="rounded=0;whiteSpace=wrap;html=1;" vertex="1" parent="1">
          <mxGeometry x="170" y="10" width="120" height="60" as="geometry" />
        </mxCell>
        <mxCell id="veUbdTU9lH5DfOVdRYez-32" style="edgeStyle=orthogonalEdgeStyle;rounded=0;orthogonalLoop=1;jettySize=auto;html=1;" edge="1" parent="1" source="veUbdTU9lH5DfOVdRYez-31" target="veUbdTU9lH5DfOVdRYez-2">
          <mxGeometry relative="1" as="geometry" />
        </mxCell>
        <mxCell id="veUbdTU9lH5DfOVdRYez-40" style="edgeStyle=orthogonalEdgeStyle;rounded=0;orthogonalLoop=1;jettySize=auto;html=1;" edge="1" parent="1" source="veUbdTU9lH5DfOVdRYez-31" target="veUbdTU9lH5DfOVdRYez-39">
          <mxGeometry relative="1" as="geometry" />
        </mxCell>
        <mxCell id="veUbdTU9lH5DfOVdRYez-31" value="新建标注任务" style="whiteSpace=wrap;html=1;" vertex="1" parent="1">
          <mxGeometry x="170" y="120" width="120" height="60" as="geometry" />
        </mxCell>
        <mxCell id="veUbdTU9lH5DfOVdRYez-36" value="&lt;pre style=&quot;font-family: &amp;#34;jetbrains mono&amp;#34; , monospace ; font-size: 11.3pt&quot;&gt;&lt;br&gt;&lt;/pre&gt;" style="strokeWidth=2;html=1;shape=mxgraph.flowchart.database;whiteSpace=wrap;" vertex="1" parent="1">
          <mxGeometry x="480" y="365" width="100" height="50" as="geometry" />
        </mxCell>
        <mxCell id="veUbdTU9lH5DfOVdRYez-37" value="&lt;pre style=&quot;font-family: &amp;#34;jetbrains mono&amp;#34; , monospace ; font-size: 11.3pt&quot;&gt;&lt;br&gt;&lt;/pre&gt;" style="strokeWidth=2;html=1;shape=mxgraph.flowchart.database;whiteSpace=wrap;" vertex="1" parent="1">
          <mxGeometry x="480" y="15" width="100" height="50" as="geometry" />
        </mxCell>
        <mxCell id="veUbdTU9lH5DfOVdRYez-39" value="&lt;pre style=&quot;font-family: &amp;#34;jetbrains mono&amp;#34; , monospace ; font-size: 11.3pt&quot;&gt;&lt;br&gt;&lt;/pre&gt;" style="strokeWidth=2;html=1;shape=mxgraph.flowchart.database;whiteSpace=wrap;" vertex="1" parent="1">
          <mxGeometry x="480" y="125" width="100" height="50" as="geometry" />
        </mxCell>
        <mxCell id="veUbdTU9lH5DfOVdRYez-43" value="" style="edgeStyle=orthogonalEdgeStyle;rounded=0;orthogonalLoop=1;jettySize=auto;html=1;" edge="1" parent="1" source="veUbdTU9lH5DfOVdRYez-41" target="veUbdTU9lH5DfOVdRYez-42">
          <mxGeometry relative="1" as="geometry" />
        </mxCell>
        <mxCell id="veUbdTU9lH5DfOVdRYez-45" value="" style="edgeStyle=orthogonalEdgeStyle;rounded=0;orthogonalLoop=1;jettySize=auto;html=1;entryX=0;entryY=0.5;entryDx=0;entryDy=0;" edge="1" parent="1" source="veUbdTU9lH5DfOVdRYez-41" target="veUbdTU9lH5DfOVdRYez-60">
          <mxGeometry relative="1" as="geometry">
            <mxPoint x="670" y="690" as="targetPoint" />
          </mxGeometry>
        </mxCell>
        <mxCell id="veUbdTU9lH5DfOVdRYez-41" value="新建模型" style="rounded=0;whiteSpace=wrap;html=1;" vertex="1" parent="1">
          <mxGeometry x="410" y="660" width="120" height="60" as="geometry" />
        </mxCell>
        <mxCell id="veUbdTU9lH5DfOVdRYez-93" style="edgeStyle=orthogonalEdgeStyle;curved=1;orthogonalLoop=1;jettySize=auto;html=1;exitX=0.5;exitY=1;exitDx=0;exitDy=0;fontSize=18;" edge="1" parent="1" source="veUbdTU9lH5DfOVdRYez-42" target="veUbdTU9lH5DfOVdRYez-92">
          <mxGeometry relative="1" as="geometry" />
        </mxCell>
        <mxCell id="veUbdTU9lH5DfOVdRYez-42" value="模型预测" style="rounded=0;whiteSpace=wrap;html=1;" vertex="1" parent="1">
          <mxGeometry x="170" y="660" width="120" height="60" as="geometry" />
        </mxCell>
        <mxCell id="veUbdTU9lH5DfOVdRYez-58" style="edgeStyle=orthogonalEdgeStyle;rounded=0;orthogonalLoop=1;jettySize=auto;html=1;entryX=0;entryY=0.25;entryDx=0;entryDy=0;" edge="1" parent="1" source="veUbdTU9lH5DfOVdRYez-49" target="veUbdTU9lH5DfOVdRYez-63">
          <mxGeometry relative="1" as="geometry">
            <mxPoint x="800" y="570" as="targetPoint" />
          </mxGeometry>
        </mxCell>
        <mxCell id="veUbdTU9lH5DfOVdRYez-49" value="标注结果" style="strokeWidth=2;html=1;shape=mxgraph.flowchart.direct_data;whiteSpace=wrap;" vertex="1" parent="1">
          <mxGeometry x="425" y="440" width="90" height="60" as="geometry" />
        </mxCell>
        <mxCell id="veUbdTU9lH5DfOVdRYez-57" style="edgeStyle=orthogonalEdgeStyle;rounded=0;orthogonalLoop=1;jettySize=auto;html=1;exitX=1;exitY=0.5;exitDx=0;exitDy=0;" edge="1" parent="1" source="veUbdTU9lH5DfOVdRYez-54" target="veUbdTU9lH5DfOVdRYez-63">
          <mxGeometry relative="1" as="geometry">
            <mxPoint x="730" y="660" as="targetPoint" />
          </mxGeometry>
        </mxCell>
        <mxCell id="veUbdTU9lH5DfOVdRYez-82" style="edgeStyle=orthogonalEdgeStyle;orthogonalLoop=1;jettySize=auto;html=1;entryX=0.5;entryY=0;entryDx=0;entryDy=0;fontSize=18;labelPosition=center;verticalLabelPosition=middle;align=center;verticalAlign=middle;rounded=0;" edge="1" parent="1" source="veUbdTU9lH5DfOVdRYez-54" target="veUbdTU9lH5DfOVdRYez-42">
          <mxGeometry relative="1" as="geometry" />
        </mxCell>
        <mxCell id="veUbdTU9lH5DfOVdRYez-54" value="NAS" style="shape=internalStorage;whiteSpace=wrap;html=1;dx=15;dy=15;rounded=1;arcSize=8;strokeWidth=2;" vertex="1" parent="1">
          <mxGeometry x="425" y="535" width="90" height="50" as="geometry" />
        </mxCell>
        <mxCell id="veUbdTU9lH5DfOVdRYez-62" style="edgeStyle=orthogonalEdgeStyle;curved=1;orthogonalLoop=1;jettySize=auto;html=1;" edge="1" parent="1" source="veUbdTU9lH5DfOVdRYez-60" target="veUbdTU9lH5DfOVdRYez-61">
          <mxGeometry relative="1" as="geometry" />
        </mxCell>
        <mxCell id="veUbdTU9lH5DfOVdRYez-60" value="&lt;span&gt;训练模型&lt;/span&gt;" style="shape=ext;rounded=1;html=1;whiteSpace=wrap;" vertex="1" parent="1">
          <mxGeometry x="660" y="660" width="100" height="60" as="geometry" />
        </mxCell>
        <mxCell id="veUbdTU9lH5DfOVdRYez-70" style="edgeStyle=orthogonalEdgeStyle;orthogonalLoop=1;jettySize=auto;html=1;exitX=0;exitY=0.5;exitDx=0;exitDy=0;entryX=0;entryY=0;entryDx=140;entryDy=45;entryPerimeter=0;rounded=0;" edge="1" parent="1" source="veUbdTU9lH5DfOVdRYez-61" target="veUbdTU9lH5DfOVdRYez-78">
          <mxGeometry relative="1" as="geometry">
            <mxPoint x="520" y="800" as="targetPoint" />
          </mxGeometry>
        </mxCell>
        <mxCell id="veUbdTU9lH5DfOVdRYez-81" value="" style="edgeStyle=orthogonalEdgeStyle;curved=1;orthogonalLoop=1;jettySize=auto;html=1;fontSize=18;" edge="1" parent="1" source="veUbdTU9lH5DfOVdRYez-61" target="veUbdTU9lH5DfOVdRYez-80">
          <mxGeometry relative="1" as="geometry" />
        </mxCell>
        <mxCell id="veUbdTU9lH5DfOVdRYez-61" value="开始训练" style="rounded=0;whiteSpace=wrap;html=1;" vertex="1" parent="1">
          <mxGeometry x="650" y="837.5" width="120" height="60" as="geometry" />
        </mxCell>
        <mxCell id="veUbdTU9lH5DfOVdRYez-64" style="edgeStyle=orthogonalEdgeStyle;curved=1;orthogonalLoop=1;jettySize=auto;html=1;exitX=0.5;exitY=1;exitDx=0;exitDy=0;" edge="1" parent="1" source="veUbdTU9lH5DfOVdRYez-63" target="veUbdTU9lH5DfOVdRYez-60">
          <mxGeometry relative="1" as="geometry" />
        </mxCell>
        <mxCell id="veUbdTU9lH5DfOVdRYez-63" value="训练数据" style="shape=parallelogram;perimeter=parallelogramPerimeter;whiteSpace=wrap;html=1;fixedSize=1;" vertex="1" parent="1">
          <mxGeometry x="650" y="530" width="120" height="60" as="geometry" />
        </mxCell>
        <mxCell id="veUbdTU9lH5DfOVdRYez-96" style="edgeStyle=orthogonalEdgeStyle;orthogonalLoop=1;jettySize=auto;html=1;entryX=1;entryY=0.5;entryDx=0;entryDy=0;fontSize=18;rounded=0;" edge="1" parent="1" source="veUbdTU9lH5DfOVdRYez-78" target="veUbdTU9lH5DfOVdRYez-92">
          <mxGeometry relative="1" as="geometry" />
        </mxCell>
        <mxCell id="veUbdTU9lH5DfOVdRYez-78" value="model_uuid.pkl" style="shape=cube;whiteSpace=wrap;html=1;boundedLbl=1;backgroundOutline=1;darkOpacity=0.05;darkOpacity2=0.1;fontSize=18;" vertex="1" parent="1">
          <mxGeometry x="400" y="822.5" width="150" height="75" as="geometry" />
        </mxCell>
        <mxCell id="veUbdTU9lH5DfOVdRYez-80" value="调度系统" style="rounded=0;whiteSpace=wrap;html=1;" vertex="1" parent="1">
          <mxGeometry x="170" y="1010" width="600" height="50" as="geometry" />
        </mxCell>
        <mxCell id="veUbdTU9lH5DfOVdRYez-95" style="edgeStyle=orthogonalEdgeStyle;curved=1;orthogonalLoop=1;jettySize=auto;html=1;exitX=0.5;exitY=1;exitDx=0;exitDy=0;fontSize=18;" edge="1" parent="1" source="veUbdTU9lH5DfOVdRYez-92" target="veUbdTU9lH5DfOVdRYez-80">
          <mxGeometry relative="1" as="geometry" />
        </mxCell>
        <mxCell id="veUbdTU9lH5DfOVdRYez-92" value="开始预测" style="rounded=0;whiteSpace=wrap;html=1;" vertex="1" parent="1">
          <mxGeometry x="170" y="830" width="120" height="60" as="geometry" />
        </mxCell>
      </root>
    </mxGraphModel>
  </diagram>
</mxfile>
